<svg xmlns="http://www.w3.org/2000/svg" viewBox="0 0 512 512">
    <path fill="#fff" stroke="#000" stroke-width="10" d="M256 512c141.385 0 256-114.615 256-256S397.385 0 256 0 0 114.615 0 256s114.615 256 256 256z"/>
    <path fill="#000" d="M256 160l-71.32 51.815 27.24 83.834h88.16l27.24-83.834L256 160zm174.568 28.5l-18.6-67.5-71.3-33l39.3 88.3 100.2 24.1c1.5-3.8 2.5-7.7 3.3-11.6zM131.32 87.68l52.3 47.5 70.3-84L379.7 8c-40-5.3-81-5.3-123.7 0L131.3 87.7zM61.1 171.6L2.3 256h70l4.3-80.3-16.5-4.1zM131.3 345.6l44.8 31.4-4 80.3c24 16.4 51.8 27.6 81.3 32.7v-143.4c-41-11-77.5-31.5-122.1-51zM380.7 345.6l-91.6 49v143.4c29.5-5.1 57.3-16.3 81.3-32.7l-4-80.3 44.8-31.4 69.5-48zM512 256l-61.1-84.4-16.5 4.1 4.3 80.3h73.3z"/>
</svg>